<?xml version="1.0" encoding="UTF-8" standalone="no"?>
<svg
   version="1.1"
   width="220"
   height="220"
   id="svg5"
   sodipodi:docname="pivot-logo-1.svg"
   inkscape:version="1.3.2 (091e20ef0f, 2023-11-25, custom)"
   xmlns:inkscape="http://www.inkscape.org/namespaces/inkscape"
   xmlns:sodipodi="http://sodipodi.sourceforge.net/DTD/sodipodi-0.dtd"
   xmlns="http://www.w3.org/2000/svg"
   xmlns:svg="http://www.w3.org/2000/svg">
  <defs
     id="defs5" />
  <sodipodi:namedview
     id="namedview5"
     pagecolor="#ffffff"
     bordercolor="#666666"
     borderopacity="1.0"
     inkscape:showpageshadow="2"
     inkscape:pageopacity="0.0"
     inkscape:pagecheckerboard="0"
     inkscape:deskcolor="#d1d1d1"
     inkscape:zoom="1.39975"
     inkscape:cx="1.0716199"
     inkscape:cy="176.10287"
     inkscape:window-width="1876"
     inkscape:window-height="1036"
     inkscape:window-x="0"
     inkscape:window-y="0"
     inkscape:window-maximized="1"
     inkscape:current-layer="svg5" />
  <path
     d="M 0,0 C 23.552251,18.304534 39.139107,43.610613 43.398437,73.277344 46.798484,101.62638 39.587422,130.78668 22.3125,153.625 c -7.754286,9.85553 -16.5345472,18.70751 -27.25,25.3125 -1.0351172,0.65613 -2.0702344,1.31227 -3.1367188,1.98828 -8.8167242,5.42145 -17.9546442,9.07979 -27.8632812,12.01172 -1.143398,0.3416 -2.286797,0.6832 -3.464844,1.03516 -8.292491,2.04225 -16.463042,2.26599 -24.972656,2.33984 -1.094897,0.014 -2.189795,0.028 -3.317871,0.0425 -9.309222,-0.0537 -16.742217,-1.63578 -26.244629,-3.41748 0,-19.14 0,-38.28 0,-58 24.5625,-0.1875 24.5625,-0.1875 32.217041,-0.20776 16.711188,-0.16206 30.533543,-1.62591 43.782959,-12.79224 0.63293,-0.52207 1.265859,-1.04414 1.917969,-1.58203 C -6.2912371,111.52914 -0.57338645,98.313306 0.22265625,85.324219 0.65318399,70.89218 -3.7579089,57.701292 -13.125,46.625 -27.75253,31.385951 -46.89126,29.127649 -66.988802,28.663153 c -4.902078,-0.07778 -9.803934,-0.111972 -14.70651,-0.139716 -2.126625,-0.01876 -4.253243,-0.03834 -6.379853,-0.05869 -5.533374,-0.0508 -11.066772,-0.0907 -16.600255,-0.128143 -5.67205,-0.04037 -11.34401,-0.09131 -17.01599,-0.141297 -11.08196,-0.09614 -22.16398,-0.180735 -33.24609,-0.257812 9.41675,-19.5680116 31.98515,-34.6203546 52,-42 C -67.736412,-25.655094 -30.492426,-21.797636 0,0 Z"
     fill="#b71d21"
     transform="translate(173.9375,22.0625)"
     id="path1"
     style="display:inline" />
  <path
     d="m 0,0 3.2588806,-0.01681519 c 3.5656048,-0.01183474 7.1299484,0.01253977 10.6954654,0.03829957 2.487044,0.0017117 4.974091,0.0016448 7.461136,-1.2208e-4 5.894274,0.0018682 11.788088,0.02813722 17.682243,0.06415129 5.98532,0.03432073 11.970392,0.03104773 17.955806,0.02426577 5.145175,-0.003092 10.290226,0.009136 15.43537,0.0261307 2.450471,0.006974 4.900956,0.0101614 7.351437,0.009308 41.320272,0.0218441 41.320272,0.0218441 56.602292,13.47001594 1.54687,2.035157 1.54687,2.035157 2.75,4.0625 0.40734,0.671602 0.81468,1.343203 1.23437,2.035157 3.35651,6.286993 3.03375,14.756244 1.36719,21.542968 -4.06002,9.924483 -12.38943,17.324107 -21.78906,22.109375 -9.78416,3.433036 -18.97244,3.515734 -29.191409,3.445313 -1.601393,-0.0037 -3.202788,-0.0066 -4.804184,-0.0086 -4.187185,-0.0076 -8.374227,-0.02719 -12.561356,-0.04941 -5.038689,-0.02419 -10.077426,-0.03326 -15.116157,-0.04491 -7.629897,-0.01931 -15.259484,-0.05766 -22.889397,-0.09242 V 129.6152 c -9.516699,-3.17223 -17.280403,-7.98301 -24.6875,-14.6875 -0.517075,-0.46333 -1.0341504,-0.92667 -1.5668946,-1.40405 -1.8923783,-1.77822 -3.5102168,-3.45016 -4.7026367,-5.77173 -0.068259,-3.39433 0.9269829,-6.44176 1.9570312,-9.636713 L 7.1330566,95.964328 C 12.813085,79.117648 24.430179,65.867672 40.005127,57.427734 c 10.03245,-4.792 21.34249,-7.35924 32.4375,-7.8125 l 2.042969,-0.121093 c 7.694518,-0.245417 15.3539,1.076246 22.957031,2.121093 C 79.335009,42.434418 57.5392,39.984565 37.962158,46.224609 26.920424,50.587381 17.404339,55.730253 8.4426269,63.615234 l -2.4804687,1.890625 c -2.7683093,2.317655 -4.8915996,4.791275 -7.1445312,7.609375 l -2.2890625,2.84375 c -1.2771171,1.626292 -2.5130295,3.287421 -3.671875,5 l -1.4140626,1.65625 h -2.9999999 c -5.435615,-16.348338 -7.306551,-30.765013 -7,-48 0.577419,0.02095 1.154839,0.04189 1.749756,0.06348 32.597701,1.020191 58.239072,-12.426531 87.250244,-26.0634766 -3.91144,0 -7.558989,0.8733433 -11.367188,1.6796876 -1.708333,0.35547 -3.416666,0.710939 -5.125,1.066406 -2.676628,0.560757 -5.353016,1.122645 -8.029296,1.685059 -28.271901,5.929509 -28.271901,5.929509 -41.8535161,5.881347 -0.9319921,0.01611 -1.8639843,0.03223 -2.8242187,0.04883 -5.7179128,0.004 -9.7526942,-0.624172 -14.8007812,-3.361328 l -2,-2 C -15.41705,9.3353902 -15.188093,6.7999325 -13.174728,3.0181935 -9.1451661,-0.68129129 -5.2898736,-0.06908696 0,0 Z"
     fill="#b71d21"
     transform="translate(21.557373,70.384766)"
     id="path2"
     style="display:inline"
     sodipodi:nodetypes="cccccccccccccccccccccccccccccccccccccccccccccccc" />
  <path
     d="m 0,0 c 4.900924,3.7936297 9.3496659,7.9514596 13.75,12.3125 0.612869,0.607229 1.225737,1.214458 1.857178,1.840088 4.326825,4.399421 4.326825,4.399421 5.455322,7.784912 -7.941044,3.31047 -16.02269,6.193915 -24.1516113,9.001465 -2.1766656,0.754 -4.3493551,1.518809 -6.5222168,2.283691 -1.3962529,0.483742 -2.7927299,0.966838 -4.1894529,1.449219 -0.642784,0.228063 -1.285568,0.456127 -1.94783,0.691101 -3.50314,1.194491 -6.488108,1.988853 -10.188889,1.574524 -1.888271,-0.960699 -3.775012,-1.924725 -5.648437,-2.914063 -15.010317,-6.931674 -33.491829,-5.27046 -49.621094,-5.402343 -2.133768,-0.02061 -4.267531,-0.04161 -6.401291,-0.06297 -5.574559,-0.05479 -11.149153,-0.104387 -16.723768,-0.152848 -5.70509,-0.05053 -11.41013,-0.106051 -17.11518,-0.161132 -11.16337,-0.107055 -22.32678,-0.208614 -33.49023,-0.306641 9.41675,-19.5680116 31.98515,-34.6203546 52,-42 C -67.736412,-25.655094 -30.492426,-21.797636 0,0 Z"
     fill="#c84545"
     transform="translate(173.9375,22.0625)"
     id="path3"
     style="display:inline" />
  <path
     d="M 0,0 3.1642914,-0.00221252 C 6.6168913,0.0012718 10.068143,0.04017511 13.520508,0.0793457 15.91375,0.0886708 18.307001,0.09578832 20.700256,0.1007843 27.000248,0.119878 33.299663,0.1690003 39.599426,0.2243042 46.027468,0.275445 52.455603,0.2982874 58.883789,0.3234863 71.497316,0.3771157 84.110444,0.46149739 96.723633,0.56762692 94.187235,3.2342098 91.935052,4.5652282 88.551758,6.0637207 l -3.167237,1.423584 -3.410888,1.5178222 C 47.289254,24.761148 13.202984,43.648311 -13.276367,71.567627 l -2,-1 c -3.479342,-11.826571 -3.337628,-23.795393 -3,-36 0.577419,0.02095 1.154839,0.04189 1.749756,0.06348 32.5977,1.020191 58.239072,-12.426531 87.250244,-26.0634771 -3.91144,0 -7.558989,0.8733434 -11.367188,1.6796871 -1.708333,0.355471 -3.416666,0.710939 -5.125,1.066407 -2.676628,0.560757 -5.353016,1.122644 -8.029297,1.685058 -28.2719,5.92951 -28.2719,5.92951 -41.8535152,5.881348 -0.9319922,0.01611 -1.8639844,0.03223 -2.8242187,0.04883 -5.7179129,0.004 -9.7526942,-0.624173 -14.8007811,-3.361328 l -2,-2 c 0.14065,-4.2898222 0.363433,-6.81797 2.400207,-10.6000214 C -8.909401,-0.69427748 -5.2181295,-0.0951207 0,0 Z"
     fill="#be4537"
     transform="translate(21.276367,70.432373)"
     id="path4"
     style="display:inline"
     sodipodi:nodetypes="cccccccccccccccccccccccc" />
  <path
     d="M 0,0 C 2,1 2,1 2,1 Z"
     fill="#b71d21"
     transform="translate(119,155)"
     id="path5"
     style="display:inline" />
</svg>
